<?xml version="1.0" encoding="utf-8"?>
<!-- Generator: Adobe Illustrator 28.2.0, SVG Export Plug-In . SVG Version: 6.00 Build 0)  -->
<svg version="1.1" id="Layer_1" xmlns="http://www.w3.org/2000/svg" xmlns:xlink="http://www.w3.org/1999/xlink" x="0px" y="0px"
	 viewBox="0 0 67.89 56.92" style="enable-background:new 0 0 67.89 56.92;" xml:space="preserve">
<style type="text/css">
	.st0{fill:#FFD900;}
</style>
<g>
	<path class="st0" d="M14.43,56.92H0.89c-0.73,0-1.15-0.84-0.71-1.42l20.5-27.04L0.18,1.42C-0.26,0.84,0.16,0,0.89,0h13.55
		c0.28,0,0.54,0.13,0.71,0.35l12.15,15.96l8.84,11.61c0.24,0.32,0.24,0.76,0,1.07l-8.84,11.61L15.14,56.57
		C14.97,56.79,14.71,56.92,14.43,56.92"/>
	<path class="st0" d="M46.01,56.92H32.46c-0.73,0-1.15-0.84-0.71-1.42l20.5-27.04L31.76,1.42C31.31,0.84,31.73,0,32.46,0h13.55
		c0.28,0,0.54,0.13,0.71,0.35l12.15,15.96l8.84,11.61c0.24,0.32,0.24,0.76,0,1.07l-8.84,11.61L46.71,56.57
		C46.55,56.79,46.29,56.92,46.01,56.92"/>
</g>
</svg>
