<?xml version="1.0" encoding="utf-8"?>
<!-- Generator: Adobe Illustrator 28.2.0, SVG Export Plug-In . SVG Version: 6.00 Build 0)  -->
<svg version="1.1" id="Layer_2_00000040571865772713380460000000805432914895342212_"
	 xmlns="http://www.w3.org/2000/svg" xmlns:xlink="http://www.w3.org/1999/xlink" x="0px" y="0px" viewBox="0 0 144 144"
	 style="enable-background:new 0 0 144 144;" xml:space="preserve">
<style type="text/css">
	.st0{fill:#FFD900;}
</style>
<g id="Layer_1-2">
	<g>
		<polygon class="st0" points="72,42.7 120,79.1 120,52.5 92.5,31.5 120,31.5 120,10.6 72,10.6 24,10.6 24,31.5 51.5,31.5 24,52.5 
			24,79.1 		"/>
		<path class="st0" d="M46.3,86c0,4.9,1,9.3,3.2,13.1s5.2,6.8,9.1,9s8.3,3.2,13.3,3.2s9.4-1,13.3-3.2c3.9-2.2,6.9-5.2,9.1-9
			c2.2-3.8,3.2-8.2,3.2-13.1H120c0,9.1-2.1,17.3-6.1,24.5c-4,7.3-9.7,12.8-17,16.9s-15.6,6-24.9,6s-17.6-2-24.9-6s-13-9.6-17-16.9
			c-4-7.2-6.1-15.4-6.1-24.5H46.3z"/>
	</g>
</g>
</svg>
