<?xml version="1.0" encoding="utf-8"?>
<!-- Generator: Adobe Illustrator 28.2.0, SVG Export Plug-In . SVG Version: 6.00 Build 0)  -->
<svg version="1.1" id="Layer_1" xmlns="http://www.w3.org/2000/svg" xmlns:xlink="http://www.w3.org/1999/xlink" x="0px" y="0px"
	 viewBox="0 0 1223.48 1610.36" style="enable-background:new 0 0 1223.48 1610.36;" xml:space="preserve">
<style type="text/css">
	.st0{fill:#FCEE21;}
	.st1{fill:#F15A24;}
	.st2{fill:#ED1C24;}
	.st3{fill:#FAD200;}
	.st4{fill:#FFFFFF;}
	.st5{fill:#566FA8;}
	.st6{fill:#3563A8;}
	.st7{fill:#2F4F94;}
	.st8{fill:#F3D832;}
	.st9{fill:#272525;}
	.st10{fill:none;stroke:#272525;stroke-width:1.6898;}
	.st11{fill:none;stroke:#272525;stroke-width:1.5292;}
	.st12{clip-path:url(#SVGID_00000007389256895273875360000001524568840403948981_);}
	.st13{clip-path:url(#SVGID_00000018924541129254789290000010869030096513193105_);}
	
		.st14{clip-path:url(#SVGID_00000079443749080038399210000007819129226723403677_);fill:none;stroke:#272425;stroke-width:1.063;stroke-dasharray:11.976,11.976;}
	
		.st15{clip-path:url(#SVGID_00000079443749080038399210000007819129226723403677_);fill:none;stroke:#272425;stroke-width:1.063;stroke-dasharray:11.694,11.694;}
	.st16{clip-path:url(#SVGID_00000079443749080038399210000007819129226723403677_);fill:none;stroke:#272425;stroke-width:1.063;}
	
		.st17{clip-path:url(#SVGID_00000002361036917380452830000003169150316807715217_);fill:none;stroke:#272425;stroke-width:1.063;stroke-dasharray:12.528,12.528;}
	
		.st18{clip-path:url(#SVGID_00000128481998167979625910000008994684380990918785_);fill:none;stroke:#272425;stroke-width:1.063;stroke-dasharray:12.528,12.528;}
	
		.st19{clip-path:url(#SVGID_00000053543060251817168630000001211203676427907493_);fill:none;stroke:#272425;stroke-width:1.063;stroke-dasharray:12.784,12.784;}
	
		.st20{clip-path:url(#SVGID_00000121994174501120647720000005897545041616563869_);fill:none;stroke:#272425;stroke-width:1.063;stroke-dasharray:12.784,12.784;}
	.st21{clip-path:url(#SVGID_00000080887711929835202620000008549996045996267174_);}
	.st22{clip-path:url(#SVGID_00000122685033387272125180000008637659854144178878_);}
	
		.st23{clip-path:url(#SVGID_00000174585828316792882160000003368671662549804200_);fill:none;stroke:#272425;stroke-width:1.063;stroke-dasharray:11.976,11.976;}
	
		.st24{clip-path:url(#SVGID_00000174585828316792882160000003368671662549804200_);fill:none;stroke:#272425;stroke-width:1.063;stroke-dasharray:11.85,11.85;}
	.st25{clip-path:url(#SVGID_00000174585828316792882160000003368671662549804200_);fill:none;stroke:#272425;stroke-width:1.063;}
	
		.st26{clip-path:url(#SVGID_00000139270415574175876790000007447946835155324308_);fill:none;stroke:#272425;stroke-width:1.063;stroke-dasharray:12.609,12.609;}
	
		.st27{clip-path:url(#SVGID_00000042721963137481642050000005212189728082291898_);fill:none;stroke:#272425;stroke-width:1.063;stroke-dasharray:12.609,12.609;}
	
		.st28{clip-path:url(#SVGID_00000044171846110087970420000009004534929460045978_);fill:none;stroke:#272425;stroke-width:1.063;stroke-dasharray:12.784,12.784;}
	
		.st29{clip-path:url(#SVGID_00000008129691531591024350000003359193980149165738_);fill:none;stroke:#272425;stroke-width:1.063;stroke-dasharray:12.784,12.784;}
	.st30{clip-path:url(#SVGID_00000102544560289028199250000016809545807679615921_);}
	.st31{clip-path:url(#SVGID_00000046306416321655717930000006555666524113233041_);}
	
		.st32{clip-path:url(#SVGID_00000052805132522514392730000002451398222578115766_);fill:none;stroke:#272425;stroke-width:1.075;stroke-dasharray:12.116,12.116;}
	
		.st33{clip-path:url(#SVGID_00000052805132522514392730000002451398222578115766_);fill:none;stroke:#272425;stroke-width:1.075;stroke-dasharray:12.122,12.122;}
	.st34{clip-path:url(#SVGID_00000052805132522514392730000002451398222578115766_);fill:none;stroke:#272425;stroke-width:1.075;}
	
		.st35{clip-path:url(#SVGID_00000152953680205065089950000002105596417389255058_);fill:none;stroke:#272425;stroke-width:0.781;stroke-dasharray:11.839,11.839;}
	
		.st36{clip-path:url(#SVGID_00000004538392412003489500000013387168231801335685_);fill:none;stroke:#272425;stroke-width:1.075;stroke-dasharray:11.412,11.412;}
	
		.st37{clip-path:url(#SVGID_00000172413162342528826310000006090635033800195759_);fill:none;stroke:#272425;stroke-width:0.781;stroke-dasharray:12.804,12.804;}
	
		.st38{clip-path:url(#SVGID_00000047054275530926952700000003162052402714388617_);fill:none;stroke:#272425;stroke-width:1.075;stroke-dasharray:11.819,11.819;}
	.st39{fill:#101820;}
</style>
<g>
	<path d="M1204.45,0H19.03C8.52,0,0,8.52,0,19.03v228.89c0,10.5,8.52,19.03,19.03,19.03h331.6L7.5,528.17
		c-4.73,3.61-7.5,9.2-7.5,15.15v291.2c0,15.72,17.99,24.67,30.53,15.17l581.22-440.53l581.2,440.53
		c12.54,9.5,30.53,0.55,30.53-15.17v-291.2c0-5.95-2.77-11.54-7.5-15.15L872.85,266.95h331.6c10.51,0,19.03-8.53,19.03-19.03V19.03
		C1223.48,8.52,1214.96,0,1204.45,0"/>
	<g>
		<path d="M1204.19,1006.29c10.77,0,19.31,8.93,19.04,19.69c-2.77,108.47-28.59,206.01-77.5,292.6
			c-51.85,91.88-124.14,163.5-216.99,214.84c-92.85,51.26-198.51,76.94-317,76.94s-224.15-25.68-317-76.94
			c-92.85-51.35-165.12-122.96-216.99-214.84c-48.93-86.59-74.73-184.14-77.51-292.6c-0.27-10.75,8.28-19.69,19.04-19.69h228.74
			c10.19,0,18.48,8.04,18.97,18.21c3.98,82.28,35.2,152.21,93.52,204.24c62.74,55.98,146.39,83.84,251.22,83.84
			s188.49-27.86,251.23-83.84c58.31-52.03,89.53-121.96,93.51-204.24c0.49-10.17,8.78-18.21,18.97-18.21H1204.19z"/>
	</g>
</g>
</svg>
