<?xml version="1.0" encoding="utf-8"?>
<!-- Generator: Adobe Illustrator 28.2.0, SVG Export Plug-In . SVG Version: 6.00 Build 0)  -->
<svg version="1.1" id="Layer_1" xmlns="http://www.w3.org/2000/svg" xmlns:xlink="http://www.w3.org/1999/xlink" x="0px" y="0px"
	 viewBox="0 0 1223.5 1610.4" style="enable-background:new 0 0 1223.5 1610.4;" xml:space="preserve">
<style type="text/css">
	.BOTTOM{fill:none;}
</style>
<path class="TOP" d="M1204.4,0H19C8.5,0,0,8.5,0,19v228.9c0,10.5,8.5,19,19,19h331.6L7.5,528.2c-4.7,3.6-7.5,9.2-7.5,15.2v291.2
	c0,15.7,18,24.7,30.5,15.2l581.2-440.5l581.2,440.5c12.5,9.5,30.5,0.5,30.5-15.2V543.3c0-6-2.8-11.5-7.5-15.2L872.8,267h331.6
	c10.5,0,19-8.5,19-19V19C1223.5,8.5,1215,0,1204.4,0"/>
<g>
	<path d="M1204.2,1006.3c10.8,0,19.3,8.9,19,19.7c-2.8,108.5-28.6,206-77.5,292.6c-51.8,91.9-124.1,163.5-217,214.8
		c-92.8,51.3-198.5,76.9-317,76.9s-224.1-25.7-317-76.9c-92.9-51.3-165.1-123-217-214.8C28.8,1232,3,1134.4,0.2,1026
		c-0.3-10.8,8.3-19.7,19-19.7H248c10.2,0,18.5,8,19,18.2c4,82.3,35.2,152.2,93.5,204.2c62.7,56,146.4,83.8,251.2,83.8
		s188.5-27.9,251.2-83.8c58.3-52,89.5-122,93.5-204.2c0.5-10.2,8.8-18.2,19-18.2H1204.2z"/>
</g>
</svg>
