<?xml version="1.0" encoding="utf-8"?>
<!-- Generator: Adobe Illustrator 28.2.0, SVG Export Plug-In . SVG Version: 6.00 Build 0)  -->
<svg version="1.1" id="Layer_1" xmlns="http://www.w3.org/2000/svg" xmlns:xlink="http://www.w3.org/1999/xlink" x="0px" y="0px"
	 viewBox="0 0 96 115.9" style="enable-background:new 0 0 96 115.9;" xml:space="preserve">
<style type="text/css">
	.st0{fill:#222222;}
</style>
<g>
	<polygon class="st0" points="48,32.1 96,68.5 96,41.9 68.5,20.9 96,20.9 96,0 48,0 0,0 0,20.9 27.5,20.9 0,41.9 0,68.5 	"/>
	<path class="st0" d="M22.3,115.9c0-4.9,1-9.3,3.2-13.1s5.2-6.8,9.1-9c3.9-2.2,8.3-3.2,13.3-3.2s9.4,1,13.3,3.2s6.9,5.2,9.1,9
		s3.2,8.2,3.2,13.1H96c0-9.1-2.1-17.3-6.1-24.5c-4-7.3-9.7-12.8-17-16.9s-15.6-6-24.9-6s-17.6,2-24.9,6s-13,9.6-17,16.9
		c-4,7.2-6.1,15.4-6.1,24.5C0,115.9,22.3,115.9,22.3,115.9z"/>
</g>
</svg>
