<?xml version="1.0" encoding="UTF-8"?>
<svg id="Layer_1" data-name="Layer 1" xmlns="http://www.w3.org/2000/svg" viewBox="0 0 1223.48 1610.36">
  <defs>
    <style>
      .cls-1 {
        stroke-width: 0px;
      }
    </style>
  </defs>
  <path class="cls-1" d="M1204.45,0H19.03C8.52,0,0,8.52,0,19.03v228.89c0,10.5,8.52,19.03,19.03,19.03h331.6L7.5,528.17c-4.73,3.61-7.5,9.2-7.5,15.15v291.2c0,15.72,17.99,24.67,30.53,15.17l581.22-440.53,581.2,440.53c12.54,9.5,30.53.55,30.53-15.17v-291.2c0-5.95-2.77-11.54-7.5-15.15l-343.13-261.22h331.6c10.51,0,19.03-8.53,19.03-19.03V19.03c0-10.51-8.52-19.03-19.03-19.03"/>
  <path class="cls-1" d="M1204.19,1006.29c10.77,0,19.31,8.93,19.04,19.69-2.77,108.47-28.59,206.01-77.5,292.6-51.85,91.88-124.14,163.5-216.99,214.84-92.85,51.26-198.51,76.94-317,76.94s-224.15-25.68-317-76.94c-92.85-51.35-165.12-122.96-216.99-214.84C28.82,1231.99,3.02,1134.44.24,1025.98c-.27-10.75,8.28-19.69,19.04-19.69h228.74c10.19,0,18.48,8.04,18.97,18.21,3.98,82.28,35.2,152.21,93.52,204.24,62.74,55.98,146.39,83.84,251.22,83.84s188.49-27.86,251.23-83.84c58.31-52.03,89.52-121.96,93.51-204.24.49-10.17,8.78-18.21,18.97-18.21h228.74Z"/>
</svg>