<?xml version="1.0" encoding="utf-8"?>
<!-- Generator: Adobe Illustrator 28.2.0, SVG Export Plug-In . SVG Version: 6.00 Build 0)  -->
<svg version="1.1" id="Layer_1" xmlns="http://www.w3.org/2000/svg" xmlns:xlink="http://www.w3.org/1999/xlink" x="0px" y="0px"
	 viewBox="0 0 2427.81 2857.66" style="enable-background:new 0 0 2427.81 2857.66;" xml:space="preserve">
<style type="text/css">
	.st0{fill:#FCEE21;}
	.st1{fill:#F15A24;}
	.st2{fill:#ED1C24;}
	.st3{fill:#FAD200;}
	.st4{fill:#FFFFFF;}
	.st5{fill:#566FA8;}
	.st6{fill:#3563A8;}
	.st7{fill:#2F4F94;}
	.st8{fill:#F3D832;}
	.st9{fill:#272525;}
	.st10{fill:none;stroke:#272525;stroke-width:1.6898;}
	.st11{fill:none;stroke:#272525;stroke-width:1.5292;}
	.st12{clip-path:url(#SVGID_00000159469702973874281270000000285282976914898829_);}
	.st13{clip-path:url(#SVGID_00000044160724017567429160000018123836127586527163_);}
	
		.st14{clip-path:url(#SVGID_00000027589266311166973600000013014391047944699322_);fill:none;stroke:#272425;stroke-width:1.063;stroke-dasharray:11.976,11.976;}
	
		.st15{clip-path:url(#SVGID_00000027589266311166973600000013014391047944699322_);fill:none;stroke:#272425;stroke-width:1.063;stroke-dasharray:11.694,11.694;}
	.st16{clip-path:url(#SVGID_00000027589266311166973600000013014391047944699322_);fill:none;stroke:#272425;stroke-width:1.063;}
	
		.st17{clip-path:url(#SVGID_00000090296956563410571390000015882019049820227224_);fill:none;stroke:#272425;stroke-width:1.063;stroke-dasharray:12.528,12.528;}
	
		.st18{clip-path:url(#SVGID_00000012434975980720268880000018190140938924018072_);fill:none;stroke:#272425;stroke-width:1.063;stroke-dasharray:12.528,12.528;}
	
		.st19{clip-path:url(#SVGID_00000104707952351238582110000000560082639191156153_);fill:none;stroke:#272425;stroke-width:1.063;stroke-dasharray:12.784,12.784;}
	
		.st20{clip-path:url(#SVGID_00000180349000624514636710000015825903670549232819_);fill:none;stroke:#272425;stroke-width:1.063;stroke-dasharray:12.784,12.784;}
	.st21{clip-path:url(#SVGID_00000043452285836827507200000009571169196259892140_);}
	.st22{clip-path:url(#SVGID_00000138553315223596816030000005599015134631055795_);}
	
		.st23{clip-path:url(#SVGID_00000056414210990246082680000004755607813271677117_);fill:none;stroke:#272425;stroke-width:1.063;stroke-dasharray:11.976,11.976;}
	
		.st24{clip-path:url(#SVGID_00000056414210990246082680000004755607813271677117_);fill:none;stroke:#272425;stroke-width:1.063;stroke-dasharray:11.85,11.85;}
	.st25{clip-path:url(#SVGID_00000056414210990246082680000004755607813271677117_);fill:none;stroke:#272425;stroke-width:1.063;}
	
		.st26{clip-path:url(#SVGID_00000127757756697186137770000002788910087014237344_);fill:none;stroke:#272425;stroke-width:1.063;stroke-dasharray:12.609,12.609;}
	
		.st27{clip-path:url(#SVGID_00000083061354424076215260000007387782826086797218_);fill:none;stroke:#272425;stroke-width:1.063;stroke-dasharray:12.609,12.609;}
	
		.st28{clip-path:url(#SVGID_00000068674923359595146370000004720042716349484964_);fill:none;stroke:#272425;stroke-width:1.063;stroke-dasharray:12.784,12.784;}
	
		.st29{clip-path:url(#SVGID_00000101782671082920966470000009503194144810847407_);fill:none;stroke:#272425;stroke-width:1.063;stroke-dasharray:12.784,12.784;}
	.st30{clip-path:url(#SVGID_00000016041724473705981380000011038859846172638600_);}
	.st31{clip-path:url(#SVGID_00000101797222267650541150000014635528418134512003_);}
	
		.st32{clip-path:url(#SVGID_00000048470458475855162280000011411230704350829450_);fill:none;stroke:#272425;stroke-width:1.075;stroke-dasharray:12.116,12.116;}
	
		.st33{clip-path:url(#SVGID_00000048470458475855162280000011411230704350829450_);fill:none;stroke:#272425;stroke-width:1.075;stroke-dasharray:12.122,12.122;}
	.st34{clip-path:url(#SVGID_00000048470458475855162280000011411230704350829450_);fill:none;stroke:#272425;stroke-width:1.075;}
	
		.st35{clip-path:url(#SVGID_00000060714908015657777040000014175171000866774462_);fill:none;stroke:#272425;stroke-width:0.781;stroke-dasharray:11.839,11.839;}
	
		.st36{clip-path:url(#SVGID_00000107569198430459144730000001407387895020754312_);fill:none;stroke:#272425;stroke-width:1.075;stroke-dasharray:11.412,11.412;}
	
		.st37{clip-path:url(#SVGID_00000085971748121197151750000010643415901321586364_);fill:none;stroke:#272425;stroke-width:0.781;stroke-dasharray:12.804,12.804;}
	
		.st38{clip-path:url(#SVGID_00000099627905052686124170000005272648597978713786_);fill:none;stroke:#272425;stroke-width:1.075;stroke-dasharray:11.819,11.819;}
	.st39{fill:#101820;}
</style>
<g>
	<path d="M1806.61,623.65H621.19c-10.51,0-19.03,8.52-19.03,19.03v228.89c0,10.5,8.52,19.03,19.03,19.03h331.6l-343.13,261.22
		c-4.73,3.61-7.5,9.2-7.5,15.15v291.2c0,15.72,17.99,24.67,30.53,15.17l581.22-440.53l581.2,440.53
		c12.54,9.5,30.53,0.55,30.53-15.17v-291.2c0-5.95-2.77-11.54-7.5-15.15L1475.01,890.6h331.6c10.51,0,19.03-8.53,19.03-19.03V642.68
		C1825.64,632.17,1817.13,623.65,1806.61,623.65"/>
	<g>
		<path d="M1806.35,1629.94c10.77,0,19.31,8.93,19.04,19.69c-2.77,108.47-28.59,206.01-77.5,292.6
			c-51.85,91.88-124.14,163.5-216.99,214.84c-92.85,51.26-198.51,76.94-317,76.94c-118.49,0-224.15-25.68-317-76.94
			c-92.85-51.35-165.12-122.96-216.99-214.84c-48.93-86.59-74.73-184.14-77.51-292.6c-0.27-10.75,8.28-19.69,19.04-19.69h228.74
			c10.19,0,18.48,8.04,18.97,18.21c3.98,82.28,35.2,152.21,93.52,204.24c62.74,55.98,146.39,83.84,251.22,83.84
			c104.83,0,188.49-27.86,251.23-83.84c58.31-52.03,89.53-121.96,93.51-204.24c0.49-10.17,8.78-18.21,18.97-18.21H1806.35z"/>
	</g>
</g>
</svg>
